<svg id="Layer_1" data-name="Layer 1" xmlns="http://www.w3.org/2000/svg" viewBox="0 0 200 300"><title>placeholder</title><path d="M82.31,214.58a1.5,1.5,0,0,0,0-3,1.5,1.5,0,0,0,0,3Z"/><path d="M84.39,214.82c.6-7.48-.53-14.94-1.9-22.28S79.61,177.61,78.9,170c-1.43-15.22-.78-30.55.59-45.74.77-8.61,1.78-17.2,2.8-25.78.23-1.91-2.78-1.9-3,0-1.8,15.21-3.59,30.45-4.07,45.77a212.41,212.41,0,0,0,.43,22.85,197.59,197.59,0,0,0,3.21,22.45c1.62,8.34,3.21,16.74,2.53,25.27-.15,1.92,2.85,1.91,3,0Z"/><path d="M41.35,137.19q29,2.63,58.15,2.5,8.31,0,16.6-.3c1.92-.06,1.93-3.06,0-3q-29.1.92-58.2-.92-8.28-.53-16.55-1.28c-1.92-.17-1.91,2.83,0,3Z"/><path d="M80.32,97.31A112.17,112.17,0,0,1,52.07,85.83a24.72,24.72,0,0,1-5.78-4.27,18.36,18.36,0,0,1-3.54-5.88,85.75,85.75,0,0,1-4.23-14.92,39.55,39.55,0,0,1-.27-16A30.94,30.94,0,0,1,43.71,33c5.6-7.56,14.15-12.32,23.12-14.69,10-2.63,20.68-2.89,30.14,1.55a109.63,109.63,0,0,1,13.11,7.69,54.94,54.94,0,0,1,11.27,9.16c6.05,6.77,8.61,15.86,9.57,24.72a115.58,115.58,0,0,1,.6,13.8c0,4.69-.47,9.58-3.21,13.54-2.4,3.47-6.25,5.72-10,7.35a79,79,0,0,1-14.42,4.41,75,75,0,0,1-15.44,1.95,7.37,7.37,0,0,1-5.71-2.11,24.31,24.31,0,0,1-2.94-4.47,18,18,0,0,0-3.42-4.48c-1.44-1.28-3.57.84-2.12,2.12,3,2.68,4,7,7.05,9.61,3.95,3.43,9.89,2.32,14.64,1.73a95.56,95.56,0,0,0,16.47-3.48c4.53-1.4,9.16-3,13.08-5.78a19.65,19.65,0,0,0,8.1-11.29c1.27-4.92,1.07-10.19.89-15.23-.32-9.5-1.62-19.36-6.24-27.82-5.08-9.28-14.17-15-23-20.34a51.28,51.28,0,0,0-14.77-6.54A47.18,47.18,0,0,0,73.61,14C63.48,15.31,53.46,19.06,45.9,26.11A34.81,34.81,0,0,0,34.56,52.29,65.63,65.63,0,0,0,37.5,69.18c1.39,4.83,2.8,10,6.11,13.88s8.53,6.39,13.09,8.65a116.12,116.12,0,0,0,15,6.19c2.57.86,5.18,1.62,7.82,2.3,1.87.48,2.67-2.41.79-2.89Z"/><path d="M84.41,213.58c-3.1.26-5.57,1.86-7.94,3.77s-4.83,4-7.21,6.07a150.91,150.91,0,0,0-13.69,13.07,78.21,78.21,0,0,0-11,15.53c-3.12,5.84-5.64,12-9.18,17.61-3.41,5.41-8,10.49-14,12.93-1.77.71-1,3.61.8,2.89,11.65-4.69,17.24-16.34,22.44-26.95A84.71,84.71,0,0,1,54.76,242a120,120,0,0,1,13.05-13.34c2.58-2.3,5.21-4.54,7.85-6.76s5.29-5,8.75-5.33c1.91-.15,1.92-3.16,0-3Z"/><path d="M85.48,216.85a155.75,155.75,0,0,0,45,19.72,179.21,179.21,0,0,0,24.34,4.3c4.17.5,8.26,1.3,11.91,3.49,3.46,2.07,6.4,4.87,9.47,7.47a189.74,189.74,0,0,0,23.54,17c1.65,1,3.16-1.59,1.51-2.59a184.43,184.43,0,0,1-21.15-15c-3.14-2.59-6.11-5.38-9.39-7.78a27.26,27.26,0,0,0-11-4.82c-4.1-.79-8.3-1-12.43-1.66s-8.12-1.37-12.13-2.3a154.67,154.67,0,0,1-23.49-7.5A151.69,151.69,0,0,1,87,214.26c-1.63-1-3.14,1.55-1.52,2.59Z"/></svg>
